<svg width="78" height="33" viewBox="0 0 78 33" fill="none" xmlns="http://www.w3.org/2000/svg">
<rect y="26" width="18" height="18" rx="2" transform="rotate(-90 0 26)" fill="url(#paint0_linear_46_49)"/>
<path d="M12.2514 23.4976C12.5422 23.8058 12.9492 23.9973 13.3996 23.9973C14.2835 23.9973 15 23.26 15 22.3506V11.6467C15 10.7373 14.2835 10 13.3996 10C12.5158 10 11.7993 10.7373 11.7993 11.6467V17.779L5.99536 10.7469C5.94409 10.6848 5.88936 10.6275 5.8317 10.575C5.53885 10.2253 5.10555 10.0036 4.62173 10.0027C3.73787 10.0011 3.02009 10.7371 3.01852 11.6465L3.01753 12.2218L11.4102 22.4704L12.0614 23.2595L12.0773 23.2785C12.0865 23.2922 12.0958 23.3058 12.1053 23.3193L12.2514 23.4976Z" fill="url(#paint1_linear_46_49)"/>
<path d="M6.20931 17.3896L3.01533 13.4893L3 22.3503C2.99843 23.2598 3.71366 23.9984 4.59751 24C5.48136 24.0016 6.19914 23.2657 6.20072 22.3562L6.20931 17.3896Z" fill="url(#paint2_linear_46_49)"/>
<path d="M20.396 23L22.948 10.988H25.412L25.192 13.21H25.28C25.588 12.726 25.9253 12.3007 26.292 11.934C26.6733 11.5673 27.0913 11.2813 27.546 11.076C28.0007 10.8707 28.5067 10.768 29.064 10.768C29.7533 10.768 30.3253 10.9147 30.78 11.208C31.2493 11.4867 31.594 11.8827 31.814 12.396C32.0487 12.9093 32.166 13.518 32.166 14.222C32.166 14.486 32.144 14.7867 32.1 15.124C32.056 15.4467 31.9973 15.7913 31.924 16.158L30.494 23H27.26L28.734 15.982C28.7927 15.7327 28.8367 15.5053 28.866 15.3C28.8953 15.08 28.91 14.882 28.91 14.706C28.91 14.2513 28.8073 13.9213 28.602 13.716C28.4113 13.496 28.1253 13.386 27.744 13.386C27.26 13.386 26.82 13.5987 26.424 14.024C26.028 14.4347 25.6833 14.992 25.39 15.696C25.1113 16.4 24.8767 17.1773 24.686 18.028L23.63 23H20.396ZM39.0188 23.22C38.0802 23.22 37.2515 23.0513 36.5328 22.714C35.8288 22.3767 35.2715 21.8633 34.8608 21.174C34.4648 20.4847 34.2668 19.6193 34.2668 18.578C34.2668 17.566 34.4062 16.598 34.6848 15.674C34.9782 14.7353 35.4035 13.8993 35.9608 13.166C36.5328 12.4327 37.2368 11.8533 38.0728 11.428C38.9088 10.988 39.8768 10.768 40.9768 10.768C42.3262 10.768 43.3308 11.076 43.9908 11.692C44.6655 12.308 45.0028 13.0927 45.0028 14.046C45.0028 14.6767 44.8562 15.2487 44.5628 15.762C44.2842 16.2753 43.8588 16.7153 43.2868 17.082C42.7295 17.4487 42.0182 17.7347 41.1528 17.94C40.2875 18.1307 39.2682 18.226 38.0948 18.226H37.5448C37.5302 18.314 37.5228 18.3947 37.5228 18.468C37.5228 18.5267 37.5228 18.5927 37.5228 18.666C37.5228 19.3113 37.7062 19.8247 38.0728 20.206C38.4542 20.5873 38.9822 20.778 39.6568 20.778C40.2875 20.778 40.8595 20.7047 41.3728 20.558C41.8862 20.4113 42.4948 20.1767 43.1988 19.854V22.296C42.5682 22.604 41.9302 22.8387 41.2848 23C40.6395 23.1467 39.8842 23.22 39.0188 23.22ZM38.3808 16.048C39.2168 16.048 39.8915 15.96 40.4048 15.784C40.9182 15.608 41.2922 15.3733 41.5268 15.08C41.7762 14.772 41.9008 14.4493 41.9008 14.112C41.9008 13.7747 41.7982 13.5253 41.5928 13.364C41.4022 13.188 41.1308 13.1 40.7788 13.1C40.3828 13.1 39.9868 13.2247 39.5908 13.474C39.1948 13.7233 38.8428 14.068 38.5348 14.508C38.2415 14.948 38.0288 15.4613 37.8968 16.048H38.3808ZM47.0072 23L46.4572 10.988H49.4712L49.5152 16.312C49.5152 16.8987 49.5079 17.4853 49.4932 18.072C49.4932 18.644 49.4639 19.2673 49.4052 19.942H49.4932C49.5959 19.5753 49.7279 19.172 49.8892 18.732C50.0506 18.2773 50.1972 17.8667 50.3292 17.5C50.4759 17.1333 50.5786 16.884 50.6372 16.752L53.1232 10.988H56.6432V16.752C56.6432 17.2507 56.6359 17.7567 56.6212 18.27C56.6212 18.7833 56.5919 19.3407 56.5332 19.942H56.6432C56.7459 19.6047 56.8706 19.2087 57.0172 18.754C57.1786 18.2993 57.3399 17.852 57.5012 17.412C57.6626 16.9573 57.8019 16.5907 57.9192 16.312L60.2732 10.988H63.5732L57.8752 23H54.3332L54.2672 17.412C54.2672 17.104 54.2672 16.7373 54.2672 16.312C54.2819 15.872 54.2966 15.4247 54.3112 14.97C54.3406 14.5153 54.3626 14.112 54.3772 13.76H54.2452C54.1279 14.112 53.9886 14.508 53.8272 14.948C53.6806 15.3733 53.5339 15.784 53.3872 16.18C53.2406 16.576 53.1086 16.9133 52.9912 17.192L50.4832 23H47.0072ZM66.3031 23.22C65.5405 23.22 64.8731 23.1613 64.3011 23.044C63.7291 22.9413 63.1938 22.7653 62.6951 22.516V19.854C63.2378 20.162 63.7951 20.404 64.3671 20.58C64.9391 20.7413 65.5258 20.822 66.1271 20.822C66.4645 20.822 66.7798 20.778 67.0731 20.69C67.3811 20.5873 67.6231 20.4407 67.7991 20.25C67.9898 20.0593 68.0851 19.8173 68.0851 19.524C68.0851 19.3187 68.0338 19.1427 67.9311 18.996C67.8431 18.8347 67.6671 18.6587 67.4031 18.468C67.1538 18.2773 66.7798 18.0427 66.2811 17.764C65.7825 17.4853 65.3571 17.1993 65.0051 16.906C64.6678 16.6127 64.4038 16.2827 64.2131 15.916C64.0371 15.5347 63.9491 15.0947 63.9491 14.596C63.9491 13.76 64.1325 13.0633 64.4991 12.506C64.8658 11.934 65.3865 11.5013 66.0611 11.208C66.7505 10.9147 67.5718 10.768 68.5251 10.768C69.2145 10.768 69.8818 10.8487 70.5271 11.01C71.1725 11.1567 71.8031 11.4133 72.4191 11.78L71.3631 14.09C70.9378 13.8407 70.4831 13.628 69.9991 13.452C69.5298 13.276 69.0605 13.188 68.5911 13.188C68.2391 13.188 67.9238 13.276 67.6451 13.452C67.3665 13.6133 67.2271 13.8627 67.2271 14.2C67.2271 14.3907 67.2785 14.5667 67.3811 14.728C67.4838 14.8747 67.6525 15.0287 67.8871 15.19C68.1218 15.3367 68.4445 15.52 68.8551 15.74C69.3391 15.9893 69.7718 16.268 70.1531 16.576C70.5345 16.8693 70.8278 17.2213 71.0331 17.632C71.2531 18.028 71.3631 18.4973 71.3631 19.04C71.3631 19.9493 71.1505 20.7193 70.7251 21.35C70.3145 21.966 69.7278 22.4353 68.9651 22.758C68.2171 23.066 67.3298 23.22 66.3031 23.22Z" fill="#1484FF"/>
<defs>
<linearGradient id="paint0_linear_46_49" x1="9" y1="26" x2="9" y2="44" gradientUnits="userSpaceOnUse">
<stop stop-color="#62B0FA"/>
<stop offset="1" stop-color="#3E92F0"/>
</linearGradient>
<linearGradient id="paint1_linear_46_49" x1="4.62186" y1="10.0029" x2="4.59622" y2="24.0001" gradientUnits="userSpaceOnUse">
<stop offset="1" stop-color="white"/>
</linearGradient>
<linearGradient id="paint2_linear_46_49" x1="4.62186" y1="10.0029" x2="4.59622" y2="24.0001" gradientUnits="userSpaceOnUse">
<stop offset="1" stop-color="white"/>
</linearGradient>
</defs>
</svg>
